<?xml version="1.0" encoding="UTF-8" standalone="no"?>
<!-- Generator: Adobe Illustrator 22.1.0, SVG Export Plug-In . SVG Version: 6.00 Build 0)  -->

<svg
   version="1.1"
   id="Layer_1"
   x="0px"
   y="0px"
   viewBox="0 0 658.49999 767.75001"
   xml:space="preserve"
   width="658.5"
   height="767.75"
   xmlns:xlink="http://www.w3.org/1999/xlink"
   xmlns="http://www.w3.org/2000/svg"
   xmlns:svg="http://www.w3.org/2000/svg"><defs
   id="defs25" />
<style
   type="text/css"
   id="style1">
	.st0{fill:#252E3E;}
	.st1{fill:none;stroke:#000000;stroke-miterlimit:10;}
	.st2{clip-path:url(#SVGID_2_);}
	.st3{clip-path:url(#SVGID_4_);}
	.st4{clip-path:url(#SVGID_6_);}
</style>


<g
   id="g25"
   transform="matrix(2.5,0,0,2.5,-2176.5,-295.75)">
	<defs
   id="defs15"><rect
     id="SVGID_1_"
     x="791.59998"
     y="66.099998"
     width="421.39999"
     height="471.70001" /></defs>
	<clipPath
   id="SVGID_2_">
		<use
   xlink:href="#SVGID_1_"
   style="overflow:visible"
   id="use15" />
	</clipPath>
	<g
   class="st2"
   clip-path="url(#SVGID_2_)"
   id="g24">
		<defs
   id="defs16"><rect
     id="SVGID_3_"
     x="791.59998"
     y="66.099998"
     width="421.39999"
     height="471.70001" /></defs>
		<clipPath
   id="SVGID_4_">
			<use
   xlink:href="#SVGID_3_"
   style="overflow:visible"
   id="use16" />
		</clipPath>
		<polygon
   class="st3"
   points="979.2,410.9 1000.5,410.9 1000.5,425.4 964.3,425.4 964.3,377.5 979.2,360.6 "
   clip-path="url(#SVGID_4_)"
   id="polygon16" />
		<polygon
   class="st3"
   points="1086.8,360.7 1134,360.7 1134,375.3 1125.3,375.3 1125.3,425.4 1110.5,425.4 1110.5,375.3 1099.6,375.3 "
   clip-path="url(#SVGID_4_)"
   id="polygon17" />
		<polygon
   class="st3"
   points="1020.7,410.9 1038.6,410.9 1051.4,425.4 1005.9,425.4 1005.9,360.7 1051.4,360.7 1038.6,375.3 1020.7,375.3 1020.7,386.1 1033.8,386.1 1033.8,400 1020.7,400 "
   clip-path="url(#SVGID_4_)"
   id="polygon18" />
		<polygon
   class="st3"
   points="936.3,410.9 959,410.9 959,425.4 921.6,425.4 921.6,360.7 967.1,360.7 954.3,375.3 936.4,375.3 936.4,386.1 949.5,386.1 949.5,400 936.3,400 "
   clip-path="url(#SVGID_4_)"
   id="polygon19" />
		<polygon
   class="st3"
   points="1065.3,375.3 1057.3,384.4 1057.3,401.7 1057.3,401.7 1065.3,410.9 1074.9,410.9 1079.7,405.5 1097.2,405.6 1079.7,425.4 1058.6,425.4 1042.5,407.2 1042.5,379 1058.6,360.7 1079.7,360.7 1097.2,380.6 1079.7,380.6 1074.9,375.3 "
   clip-path="url(#SVGID_4_)"
   id="polygon20" />
		<polygon
   class="st3"
   points="885.4,380.8 885.4,386.1 885.4,386.1 916.3,386.1 916.3,410.8 903.4,425.4 870.7,425.4 870.7,410.9 896.5,410.9 901.4,405.4 901.4,400.1 901.5,400.1 901.4,400.1 870.6,400.1 870.6,375.4 883.5,360.7 916.2,360.7 916.2,375.3 890.3,375.3 "
   clip-path="url(#SVGID_4_)"
   id="polygon21" />
		<g
   class="st3"
   clip-path="url(#SVGID_4_)"
   id="g23">
			<defs
   id="defs21"><rect
     id="SVGID_5_"
     x="791.59998"
     y="66.099998"
     width="421.39999"
     height="471.70001" /></defs>
			<clipPath
   id="SVGID_6_">
				<use
   xlink:href="#SVGID_5_"
   style="overflow:visible"
   id="use21" />
			</clipPath>
			<path
   class="st4"
   d="m 1002.3,282.9 c -16,0 -29.2,6.6 -52.4,19.9 -41.6,24 -70.6,40.7 -75.3,43.4 6.3,-3.6 57.5,-30.9 127.7,-30.9 v 0 0 c 70.1,0 121.1,27.2 127.7,30.9 -4.8,-2.7 -33.7,-19.5 -75.3,-43.4 -23.2,-13.4 -36.4,-19.9 -52.4,-19.9"
   clip-path="url(#SVGID_6_)"
   id="path21" />
			<path
   class="st4"
   d="m 961.2,244.2 v 0 0 c 0,0 0,0 0,0 v 0 c -35.1,60.6 -84.2,91.2 -90.6,95 4.7,-2.7 33.7,-19.4 75.3,-43.4 23.2,-13.4 35.5,-21.6 43.5,-35.4 v 0 c 8,-13.8 8.9,-28.5 8.9,-55.3 v -86.8 c -0.1,7.7 -2.1,65.4 -37.1,125.9"
   clip-path="url(#SVGID_6_)"
   id="path22" />
			<path
   class="st4"
   d="m 1043.4,244.2 v 0 0 0 0 c 35.1,60.6 84.2,91.2 90.6,95 -4.7,-2.7 -33.7,-19.4 -75.3,-43.4 -23.2,-13.4 -35.5,-21.6 -43.5,-35.4 v 0 c -8,-13.8 -8.9,-28.5 -8.9,-55.3 v -86.8 c 0.1,7.7 2.1,65.4 37.1,125.9"
   clip-path="url(#SVGID_6_)"
   id="path23" />
		</g>
	</g>
</g>
</svg>
