<svg width="13" height="14" viewBox="0 0 13 14" fill="none" xmlns="http://www.w3.org/2000/svg">
<path fill-rule="evenodd" clip-rule="evenodd" d="M10.1529 3.03318C8.33041 1.21073 5.37564 1.21073 3.5532 3.03318C1.73075 4.85562 1.73075 7.81039 3.5532 9.63284L6.38218 12.4618C6.64235 12.722 7.06362 12.7221 7.32415 12.4615L10.1529 9.63284C11.9753 7.81039 11.9753 4.85562 10.1529 3.03318ZM2.61039 2.09037C4.95353 -0.252779 8.75252 -0.252779 11.0957 2.09037C13.4388 4.43351 13.4388 8.2325 11.0957 10.5756L8.76082 12.9105C8.73989 12.9314 8.76997 12.9013 8.74904 12.9223L8.26696 13.4044C7.4861 14.1852 6.22061 14.1859 5.43938 13.4046L2.61039 10.5756C0.267241 8.2325 0.267241 4.43351 2.61039 2.09037ZM6.85303 4.99967C6.11665 4.99967 5.51969 5.59663 5.51969 6.33301C5.51969 7.06939 6.11665 7.66634 6.85303 7.66634C7.58941 7.66634 8.18636 7.06939 8.18636 6.33301C8.18636 5.59663 7.58941 4.99967 6.85303 4.99967ZM4.18636 6.33301C4.18636 4.86025 5.38027 3.66634 6.85303 3.66634C8.32579 3.66634 9.51969 4.86025 9.51969 6.33301C9.51969 7.80577 8.32579 8.99967 6.85303 8.99967C5.38027 8.99967 4.18636 7.80577 4.18636 6.33301Z" fill="white"/>
</svg>
