<svg width="14" height="12" viewBox="0 0 14 12" fill="none" xmlns="http://www.w3.org/2000/svg">
<path fill-rule="evenodd" clip-rule="evenodd" d="M0.18635 2.66699C0.18635 1.56242 1.08178 0.666992 2.18635 0.666992H11.5197C12.6243 0.666992 13.5197 1.56242 13.5197 2.66699V3.32331C13.5198 3.32981 13.5198 3.33629 13.5197 3.34278V9.33366C13.5197 10.4382 12.6243 11.3337 11.5197 11.3337H2.18635C1.08178 11.3337 0.18635 10.4382 0.18635 9.33366V3.34277C0.186256 3.33629 0.186256 3.32981 0.18635 3.32332V2.66699ZM1.51968 4.57934V9.33366C1.51968 9.70185 1.81816 10.0003 2.18635 10.0003H11.5197C11.8879 10.0003 12.1863 9.70185 12.1863 9.33366V4.57934L7.96242 7.39529C7.29062 7.84316 6.41542 7.84316 5.74362 7.39529L1.51968 4.57934ZM12.1863 2.97687L7.22282 6.28589C6.99888 6.43518 6.70715 6.43518 6.48322 6.28589L1.51968 2.97687V2.66699C1.51968 2.2988 1.81816 2.00033 2.18635 2.00033H11.5197C11.8879 2.00033 12.1863 2.2988 12.1863 2.66699V2.97687Z" fill="white"/>
</svg>
